<?xml version="1.0" encoding="utf-8" ?>
<svg baseProfile="full" height="100%" version="1.1" width="100%" xmlns="http://www.w3.org/2000/svg" xmlns:ev="http://www.w3.org/2001/xml-events" xmlns:xlink="http://www.w3.org/1999/xlink"><defs /><g fill="white" id="Academy"><rect fill="white" height="90mm" rx="8mm" ry="8mm" stroke="black" stroke-width="1.5" width="60mm" x="20mm" y="320mm" /><text fill="black" stroke="black" style="font-size:24px; font-family:Arial" x="35mm" y="330mm">ACADEMY</text><text dx="4mm" dy="7mm" fill="firebrick" stroke="firebrick" style="font-size:24px;font-family:Arial;writing-mode:tb;glyph-orientation-vertical:0" x="20mm" y="320mm">LEGIONARY</text><text dx="33mm" dy="87mm" fill="firebrick" stroke="firebrick" style="font-size:24px; font-family:Arial" x="20mm" y="320mm">BRICK</text><circle cx="26mm" cy="404mm" r="6mm" stroke="darkgoldenrod" stroke-width="2" /><circle cx="26mm" cy="404mm" r="5mm" stroke="darkgoldenrod" stroke-width="2" /><circle cx="30mm" cy="404mm" r="6mm" stroke="darkgoldenrod" stroke-width="2" /><circle cx="30mm" cy="404mm" r="5mm" stroke="darkgoldenrod" stroke-width="2" /><text fill="slategrey" stroke="slategrey" style="font-size:16px;font-family:Arial;display-align:center" x="33mm" y="360mm"><tspan x="33mm" y="360mm">May perform one </tspan><tspan x="33mm" y="367mm">THINKER action </tspan><tspan x="33mm" y="374mm">after turn during </tspan><tspan x="33mm" y="381mm">which you </tspan><tspan x="33mm" y="388mm">performed </tspan><tspan x="33mm" y="395mm">CRAFTSMAN action </tspan></text></g><g fill="white" id="Amphitheatre"><rect fill="white" height="90mm" rx="8mm" ry="8mm" stroke="black" stroke-width="1.5" width="60mm" x="20mm" y="220mm" /><text fill="black" stroke="black" style="font-size:24px; font-family:Arial" x="28mm" y="230mm">AMPHITHEATRE</text><text dx="4mm" dy="7mm" fill="slategrey" stroke="slategrey" style="font-size:24px;font-family:Arial;writing-mode:tb;glyph-orientation-vertical:0" x="20mm" y="220mm">ARCHITECT</text><text dx="21mm" dy="87mm" fill="slategrey" stroke="slategrey" style="font-size:24px; font-family:Arial" x="20mm" y="220mm">CONCRETE</text><circle cx="26mm" cy="304mm" r="6mm" stroke="darkgoldenrod" stroke-width="2" /><circle cx="26mm" cy="304mm" r="5mm" stroke="darkgoldenrod" stroke-width="2" /><circle cx="30mm" cy="304mm" r="6mm" stroke="darkgoldenrod" stroke-width="2" /><circle cx="30mm" cy="304mm" r="5mm" stroke="darkgoldenrod" stroke-width="2" /><text fill="slategrey" stroke="slategrey" style="font-size:16px;font-family:Arial;display-align:center" x="33mm" y="270mm"><tspan x="33mm" y="270mm">May perform one </tspan><tspan x="33mm" y="277mm">CRAFTSMAN action </tspan><tspan x="33mm" y="284mm">for each </tspan><tspan x="33mm" y="291mm">INFLUENCE </tspan></text></g><g fill="white" id="Aqueduct"><rect fill="white" height="90mm" rx="8mm" ry="8mm" stroke="black" stroke-width="1.5" width="60mm" x="120mm" y="220mm" /><text fill="black" stroke="black" style="font-size:24px; font-family:Arial" x="132mm" y="230mm">AQUEDUCT</text><text dx="4mm" dy="7mm" fill="slategrey" stroke="slategrey" style="font-size:24px;font-family:Arial;writing-mode:tb;glyph-orientation-vertical:0" x="120mm" y="220mm">ARCHITECT</text><text dx="21mm" dy="87mm" fill="slategrey" stroke="slategrey" style="font-size:24px; font-family:Arial" x="120mm" y="220mm">CONCRETE</text><circle cx="126mm" cy="304mm" r="6mm" stroke="darkgoldenrod" stroke-width="2" /><circle cx="126mm" cy="304mm" r="5mm" stroke="darkgoldenrod" stroke-width="2" /><circle cx="130mm" cy="304mm" r="6mm" stroke="darkgoldenrod" stroke-width="2" /><circle cx="130mm" cy="304mm" r="5mm" stroke="darkgoldenrod" stroke-width="2" /><text fill="slategrey" stroke="slategrey" style="font-size:16px;font-family:Arial;display-align:center" x="133mm" y="265mm"><tspan x="133mm" y="265mm">When performing </tspan><tspan x="133mm" y="272mm">PATRON action may </tspan><tspan x="133mm" y="279mm">take client from </tspan><tspan x="133mm" y="286mm">HAND.  Maximum </tspan><tspan x="133mm" y="293mm">CLIENTELE x 2 </tspan></text></g><g fill="white" id="Archway"><rect fill="white" height="90mm" rx="8mm" ry="8mm" stroke="black" stroke-width="1.5" width="60mm" x="120mm" y="320mm" /><text fill="black" stroke="black" style="font-size:24px; font-family:Arial" x="135mm" y="330mm">ARCHWAY</text><text dx="4mm" dy="7mm" fill="firebrick" stroke="firebrick" style="font-size:24px;font-family:Arial;writing-mode:tb;glyph-orientation-vertical:0" x="120mm" y="320mm">LEGIONARY</text><text dx="33mm" dy="87mm" fill="firebrick" stroke="firebrick" style="font-size:24px; font-family:Arial" x="120mm" y="320mm">BRICK</text><circle cx="126mm" cy="404mm" r="6mm" stroke="darkgoldenrod" stroke-width="2" /><circle cx="126mm" cy="404mm" r="5mm" stroke="darkgoldenrod" stroke-width="2" /><circle cx="130mm" cy="404mm" r="6mm" stroke="darkgoldenrod" stroke-width="2" /><circle cx="130mm" cy="404mm" r="5mm" stroke="darkgoldenrod" stroke-width="2" /><text fill="slategrey" stroke="slategrey" style="font-size:16px;font-family:Arial;display-align:center" x="133mm" y="370mm"><tspan x="133mm" y="370mm">When performing </tspan><tspan x="133mm" y="377mm">ARCHITECT action </tspan><tspan x="133mm" y="384mm">may take material </tspan><tspan x="133mm" y="391mm">from POOL </tspan></text></g><g fill="white" id="Atrium"><rect fill="white" height="90mm" rx="8mm" ry="8mm" stroke="black" stroke-width="1.5" width="60mm" x="220mm" y="320mm" /><text fill="black" stroke="black" style="font-size:24px; font-family:Arial" x="235mm" y="330mm">ATRIUM</text><text dx="4mm" dy="7mm" fill="firebrick" stroke="firebrick" style="font-size:24px;font-family:Arial;writing-mode:tb;glyph-orientation-vertical:0" x="220mm" y="320mm">LEGIONARY</text><text dx="33mm" dy="87mm" fill="firebrick" stroke="firebrick" style="font-size:24px; font-family:Arial" x="220mm" y="320mm">BRICK</text><circle cx="226mm" cy="404mm" r="6mm" stroke="darkgoldenrod" stroke-width="2" /><circle cx="226mm" cy="404mm" r="5mm" stroke="darkgoldenrod" stroke-width="2" /><circle cx="230mm" cy="404mm" r="6mm" stroke="darkgoldenrod" stroke-width="2" /><circle cx="230mm" cy="404mm" r="5mm" stroke="darkgoldenrod" stroke-width="2" /><text fill="slategrey" stroke="slategrey" style="font-size:16px;font-family:Arial;display-align:center" x="233mm" y="365mm"><tspan x="233mm" y="365mm">When performing </tspan><tspan x="233mm" y="372mm">MERCHANT action </tspan><tspan x="233mm" y="379mm">may take from </tspan><tspan x="233mm" y="386mm">DECK (do not look </tspan><tspan x="233mm" y="393mm">at card) </tspan></text></g><g fill="white" id="Bar"><rect fill="white" height="90mm" rx="8mm" ry="8mm" stroke="black" stroke-width="1.5" width="60mm" x="20mm" y="120mm" /><text fill="black" stroke="black" style="font-size:24px; font-family:Arial" x="42mm" y="130mm">BAR</text><text dx="4mm" dy="10mm" fill="gold" stroke="gold" style="font-size:24px;font-family:Arial;writing-mode:tb;glyph-orientation-vertical:0" x="20mm" y="120mm">LABORER</text><text dx="30mm" dy="87mm" fill="gold" stroke="gold" style="font-size:24px; font-family:Arial" x="20mm" y="120mm">RUBBLE</text><circle cx="26mm" cy="204mm" r="6mm" stroke="darkgoldenrod" stroke-width="2" /><circle cx="26mm" cy="204mm" r="5mm" stroke="darkgoldenrod" stroke-width="2" /><text fill="slategrey" stroke="slategrey" style="font-size:16px;font-family:Arial;display-align:center" x="33mm" y="170mm"><tspan x="33mm" y="170mm">When performing </tspan><tspan x="33mm" y="177mm">PATRON action may </tspan><tspan x="33mm" y="184mm">take card from </tspan><tspan x="33mm" y="191mm">DECK </tspan></text></g><g fill="white" id="Basilica"><rect fill="white" height="90mm" rx="8mm" ry="8mm" stroke="black" stroke-width="1.5" width="60mm" x="20mm" y="420mm" /><text fill="black" stroke="black" style="font-size:24px; font-family:Arial" x="32mm" y="430mm">BASILICA</text><text dx="4mm" dy="20mm" fill="purple" stroke="purple" style="font-size:24px;font-family:Arial;writing-mode:tb;glyph-orientation-vertical:0" x="20mm" y="420mm">PATRON</text><text dx="30mm" dy="87mm" fill="purple" stroke="purple" style="font-size:24px; font-family:Arial" x="20mm" y="420mm">MARBLE</text><circle cx="26mm" cy="504mm" r="6mm" stroke="darkgoldenrod" stroke-width="2" /><circle cx="26mm" cy="504mm" r="5mm" stroke="darkgoldenrod" stroke-width="2" /><circle cx="30mm" cy="504mm" r="6mm" stroke="darkgoldenrod" stroke-width="2" /><circle cx="30mm" cy="504mm" r="5mm" stroke="darkgoldenrod" stroke-width="2" /><circle cx="34mm" cy="504mm" r="6mm" stroke="darkgoldenrod" stroke-width="2" /><circle cx="34mm" cy="504mm" r="5mm" stroke="darkgoldenrod" stroke-width="2" /><text fill="slategrey" stroke="slategrey" style="font-size:16px;font-family:Arial;display-align:center" x="33mm" y="470mm"><tspan x="33mm" y="470mm">When performing </tspan><tspan x="33mm" y="477mm">MERCHANT action </tspan><tspan x="33mm" y="484mm">may take material </tspan><tspan x="33mm" y="491mm">from HAND </tspan></text></g><g fill="white" id="Bath"><rect fill="white" height="90mm" rx="8mm" ry="8mm" stroke="black" stroke-width="1.5" width="60mm" x="320mm" y="320mm" /><text fill="black" stroke="black" style="font-size:24px; font-family:Arial" x="342mm" y="330mm">BATH</text><text dx="4mm" dy="7mm" fill="firebrick" stroke="firebrick" style="font-size:24px;font-family:Arial;writing-mode:tb;glyph-orientation-vertical:0" x="320mm" y="320mm">LEGIONARY</text><text dx="33mm" dy="87mm" fill="firebrick" stroke="firebrick" style="font-size:24px; font-family:Arial" x="320mm" y="320mm">BRICK</text><circle cx="326mm" cy="404mm" r="6mm" stroke="darkgoldenrod" stroke-width="2" /><circle cx="326mm" cy="404mm" r="5mm" stroke="darkgoldenrod" stroke-width="2" /><circle cx="330mm" cy="404mm" r="6mm" stroke="darkgoldenrod" stroke-width="2" /><circle cx="330mm" cy="404mm" r="5mm" stroke="darkgoldenrod" stroke-width="2" /><text fill="slategrey" stroke="slategrey" style="font-size:16px;font-family:Arial;display-align:center" x="333mm" y="350mm"><tspan x="333mm" y="350mm">When performing </tspan><tspan x="333mm" y="357mm">PATRON action </tspan><tspan x="333mm" y="364mm">each client you </tspan><tspan x="333mm" y="371mm">hire may perform </tspan><tspan x="333mm" y="378mm">its action once </tspan><tspan x="333mm" y="385mm">as it enters </tspan><tspan x="333mm" y="392mm">CLIENTELE </tspan></text></g><g fill="white" id="Bridge"><rect fill="white" height="90mm" rx="8mm" ry="8mm" stroke="black" stroke-width="1.5" width="60mm" x="220mm" y="220mm" /><text fill="black" stroke="black" style="font-size:24px; font-family:Arial" x="235mm" y="230mm">BRIDGE</text><text dx="4mm" dy="7mm" fill="slategrey" stroke="slategrey" style="font-size:24px;font-family:Arial;writing-mode:tb;glyph-orientation-vertical:0" x="220mm" y="220mm">ARCHITECT</text><text dx="21mm" dy="87mm" fill="slategrey" stroke="slategrey" style="font-size:24px; font-family:Arial" x="220mm" y="220mm">CONCRETE</text><circle cx="226mm" cy="304mm" r="6mm" stroke="darkgoldenrod" stroke-width="2" /><circle cx="226mm" cy="304mm" r="5mm" stroke="darkgoldenrod" stroke-width="2" /><circle cx="230mm" cy="304mm" r="6mm" stroke="darkgoldenrod" stroke-width="2" /><circle cx="230mm" cy="304mm" r="5mm" stroke="darkgoldenrod" stroke-width="2" /><text fill="slategrey" stroke="slategrey" style="font-size:16px;font-family:Arial;display-align:center" x="233mm" y="250mm"><tspan x="233mm" y="250mm">When performing </tspan><tspan x="233mm" y="257mm">LEGIONARY action </tspan><tspan x="233mm" y="264mm">may take material </tspan><tspan x="233mm" y="271mm">from STOCKPILE.  </tspan><tspan x="233mm" y="278mm">Ignore Palisades. </tspan><tspan x="233mm" y="285mm"> May take from </tspan><tspan x="233mm" y="292mm">all opponents </tspan></text></g><g fill="white" id="Catacomb"><rect fill="white" height="90mm" rx="8mm" ry="8mm" stroke="black" stroke-width="1.5" width="60mm" x="20mm" y="520mm" /><text fill="black" stroke="black" style="font-size:24px; font-family:Arial" x="32mm" y="530mm">CATACOMB</text><text dx="4mm" dy="15mm" fill="cornflowerblue" stroke="cornflowerblue" style="font-size:24px;font-family:Arial;writing-mode:tb;glyph-orientation-vertical:0" x="20mm" y="520mm">MERCHANT</text><text dx="33mm" dy="87mm" fill="cornflowerblue" stroke="cornflowerblue" style="font-size:24px; font-family:Arial" x="20mm" y="520mm">STONE</text><circle cx="26mm" cy="604mm" r="6mm" stroke="darkgoldenrod" stroke-width="2" /><circle cx="26mm" cy="604mm" r="5mm" stroke="darkgoldenrod" stroke-width="2" /><circle cx="30mm" cy="604mm" r="6mm" stroke="darkgoldenrod" stroke-width="2" /><circle cx="30mm" cy="604mm" r="5mm" stroke="darkgoldenrod" stroke-width="2" /><circle cx="34mm" cy="604mm" r="6mm" stroke="darkgoldenrod" stroke-width="2" /><circle cx="34mm" cy="604mm" r="5mm" stroke="darkgoldenrod" stroke-width="2" /><text fill="slategrey" stroke="slategrey" style="font-size:16px;font-family:Arial;display-align:center" x="33mm" y="573mm"><tspan x="33mm" y="573mm">Game ends </tspan><tspan x="33mm" y="580mm">immediately.  </tspan><tspan x="33mm" y="587mm">Score as usual </tspan></text></g><g fill="white" id="Circus"><rect fill="white" height="90mm" rx="8mm" ry="8mm" stroke="black" stroke-width="1.5" width="60mm" x="20mm" y="20mm" /><text fill="black" stroke="black" style="font-size:24px; font-family:Arial" x="35mm" y="30mm">CIRCUS</text><text dx="4mm" dy="7mm" fill="green" stroke="green" style="font-size:24px;font-family:Arial;writing-mode:tb;glyph-orientation-vertical:0" x="20mm" y="20mm">CRAFTSMAN</text><text dx="33mm" dy="87mm" fill="green" stroke="green" style="font-size:24px; font-family:Arial" x="20mm" y="20mm">WOOD</text><circle cx="26mm" cy="104mm" r="6mm" stroke="darkgoldenrod" stroke-width="2" /><circle cx="26mm" cy="104mm" r="5mm" stroke="darkgoldenrod" stroke-width="2" /><text fill="slategrey" stroke="slategrey" style="font-size:16px;font-family:Arial;display-align:center" x="33mm" y="73mm"><tspan x="33mm" y="73mm">May play two </tspan><tspan x="33mm" y="80mm">cards of same </tspan><tspan x="33mm" y="87mm">role as JACK </tspan></text></g><g fill="white" id="Circus_Maximus"><rect fill="white" height="90mm" rx="8mm" ry="8mm" stroke="black" stroke-width="1.5" width="60mm" x="120mm" y="520mm" /><text fill="black" stroke="black" style="font-size:24px;font-family:Arial;display-align:center" x="135mm" y="530mm"><tspan x="135mm" y="530mm">CIRCUS</tspan><tspan x="135mm" y="537mm">MAXIMUS</tspan></text><text dx="4mm" dy="15mm" fill="cornflowerblue" stroke="cornflowerblue" style="font-size:24px;font-family:Arial;writing-mode:tb;glyph-orientation-vertical:0" x="120mm" y="520mm">MERCHANT</text><text dx="33mm" dy="87mm" fill="cornflowerblue" stroke="cornflowerblue" style="font-size:24px; font-family:Arial" x="120mm" y="520mm">STONE</text><circle cx="126mm" cy="604mm" r="6mm" stroke="darkgoldenrod" stroke-width="2" /><circle cx="126mm" cy="604mm" r="5mm" stroke="darkgoldenrod" stroke-width="2" /><circle cx="130mm" cy="604mm" r="6mm" stroke="darkgoldenrod" stroke-width="2" /><circle cx="130mm" cy="604mm" r="5mm" stroke="darkgoldenrod" stroke-width="2" /><circle cx="134mm" cy="604mm" r="6mm" stroke="darkgoldenrod" stroke-width="2" /><circle cx="134mm" cy="604mm" r="5mm" stroke="darkgoldenrod" stroke-width="2" /><text fill="slategrey" stroke="slategrey" style="font-size:16px;font-family:Arial;display-align:center" x="133mm" y="565mm"><tspan x="133mm" y="565mm">Each client may </tspan><tspan x="133mm" y="572mm">perform its </tspan><tspan x="133mm" y="579mm">action twice when </tspan><tspan x="133mm" y="586mm">you lead or </tspan><tspan x="133mm" y="593mm">follow its role </tspan></text></g><g fill="white" id="Coliseum"><rect fill="white" height="90mm" rx="8mm" ry="8mm" stroke="black" stroke-width="1.5" width="60mm" x="220mm" y="520mm" /><text fill="black" stroke="black" style="font-size:24px; font-family:Arial" x="232mm" y="530mm">COLISEUM</text><text dx="4mm" dy="15mm" fill="cornflowerblue" stroke="cornflowerblue" style="font-size:24px;font-family:Arial;writing-mode:tb;glyph-orientation-vertical:0" x="220mm" y="520mm">MERCHANT</text><text dx="33mm" dy="87mm" fill="cornflowerblue" stroke="cornflowerblue" style="font-size:24px; font-family:Arial" x="220mm" y="520mm">STONE</text><circle cx="226mm" cy="604mm" r="6mm" stroke="darkgoldenrod" stroke-width="2" /><circle cx="226mm" cy="604mm" r="5mm" stroke="darkgoldenrod" stroke-width="2" /><circle cx="230mm" cy="604mm" r="6mm" stroke="darkgoldenrod" stroke-width="2" /><circle cx="230mm" cy="604mm" r="5mm" stroke="darkgoldenrod" stroke-width="2" /><circle cx="234mm" cy="604mm" r="6mm" stroke="darkgoldenrod" stroke-width="2" /><circle cx="234mm" cy="604mm" r="5mm" stroke="darkgoldenrod" stroke-width="2" /><text fill="slategrey" stroke="slategrey" style="font-size:16px;font-family:Arial;display-align:center" x="233mm" y="560mm"><tspan x="233mm" y="560mm">When performing </tspan><tspan x="233mm" y="567mm">LEGIONARY action </tspan><tspan x="233mm" y="574mm">may take </tspan><tspan x="233mm" y="581mm">opponent's client </tspan><tspan x="233mm" y="588mm">and place in </tspan><tspan x="233mm" y="595mm">VAULT as material </tspan></text></g><g fill="white" id="Dock"><rect fill="white" height="90mm" rx="8mm" ry="8mm" stroke="black" stroke-width="1.5" width="60mm" x="120mm" y="20mm" /><text fill="black" stroke="black" style="font-size:24px; font-family:Arial" x="142mm" y="30mm">DOCK</text><text dx="4mm" dy="7mm" fill="green" stroke="green" style="font-size:24px;font-family:Arial;writing-mode:tb;glyph-orientation-vertical:0" x="120mm" y="20mm">CRAFTSMAN</text><text dx="33mm" dy="87mm" fill="green" stroke="green" style="font-size:24px; font-family:Arial" x="120mm" y="20mm">WOOD</text><circle cx="126mm" cy="104mm" r="6mm" stroke="darkgoldenrod" stroke-width="2" /><circle cx="126mm" cy="104mm" r="5mm" stroke="darkgoldenrod" stroke-width="2" /><text fill="slategrey" stroke="slategrey" style="font-size:16px;font-family:Arial;display-align:center" x="133mm" y="70mm"><tspan x="133mm" y="70mm">When performing </tspan><tspan x="133mm" y="77mm">LABORER action </tspan><tspan x="133mm" y="84mm">may take material </tspan><tspan x="133mm" y="91mm">from HAND </tspan></text></g><g fill="white" id="Forum"><rect fill="white" height="90mm" rx="8mm" ry="8mm" stroke="black" stroke-width="1.5" width="60mm" x="120mm" y="420mm" /><text fill="black" stroke="black" style="font-size:24px; font-family:Arial" x="138mm" y="430mm">FORUM</text><text dx="4mm" dy="20mm" fill="purple" stroke="purple" style="font-size:24px;font-family:Arial;writing-mode:tb;glyph-orientation-vertical:0" x="120mm" y="420mm">PATRON</text><text dx="30mm" dy="87mm" fill="purple" stroke="purple" style="font-size:24px; font-family:Arial" x="120mm" y="420mm">MARBLE</text><circle cx="126mm" cy="504mm" r="6mm" stroke="darkgoldenrod" stroke-width="2" /><circle cx="126mm" cy="504mm" r="5mm" stroke="darkgoldenrod" stroke-width="2" /><circle cx="130mm" cy="504mm" r="6mm" stroke="darkgoldenrod" stroke-width="2" /><circle cx="130mm" cy="504mm" r="5mm" stroke="darkgoldenrod" stroke-width="2" /><circle cx="134mm" cy="504mm" r="6mm" stroke="darkgoldenrod" stroke-width="2" /><circle cx="134mm" cy="504mm" r="5mm" stroke="darkgoldenrod" stroke-width="2" /><text fill="slategrey" stroke="slategrey" style="font-size:16px;font-family:Arial;display-align:center" x="133mm" y="473mm"><tspan x="133mm" y="473mm">One client of </tspan><tspan x="133mm" y="480mm">each role wins </tspan><tspan x="133mm" y="487mm">game </tspan></text></g><g fill="white" id="Foundry"><rect fill="white" height="90mm" rx="8mm" ry="8mm" stroke="black" stroke-width="1.5" width="60mm" x="420mm" y="320mm" /><text fill="black" stroke="black" style="font-size:24px; font-family:Arial" x="435mm" y="330mm">FOUNDRY</text><text dx="4mm" dy="7mm" fill="firebrick" stroke="firebrick" style="font-size:24px;font-family:Arial;writing-mode:tb;glyph-orientation-vertical:0" x="420mm" y="320mm">LEGIONARY</text><text dx="33mm" dy="87mm" fill="firebrick" stroke="firebrick" style="font-size:24px; font-family:Arial" x="420mm" y="320mm">BRICK</text><circle cx="426mm" cy="404mm" r="6mm" stroke="darkgoldenrod" stroke-width="2" /><circle cx="426mm" cy="404mm" r="5mm" stroke="darkgoldenrod" stroke-width="2" /><circle cx="430mm" cy="404mm" r="6mm" stroke="darkgoldenrod" stroke-width="2" /><circle cx="430mm" cy="404mm" r="5mm" stroke="darkgoldenrod" stroke-width="2" /><text fill="slategrey" stroke="slategrey" style="font-size:16px;font-family:Arial;display-align:center" x="433mm" y="370mm"><tspan x="433mm" y="370mm">May perform one </tspan><tspan x="433mm" y="377mm">LABORER action </tspan><tspan x="433mm" y="384mm">for each </tspan><tspan x="433mm" y="391mm">INFLUENCE </tspan></text></g><g fill="white" id="Fountain"><rect fill="white" height="90mm" rx="8mm" ry="8mm" stroke="black" stroke-width="1.5" width="60mm" x="220mm" y="420mm" /><text fill="black" stroke="black" style="font-size:24px; font-family:Arial" x="232mm" y="430mm">FOUNTAIN</text><text dx="4mm" dy="20mm" fill="purple" stroke="purple" style="font-size:24px;font-family:Arial;writing-mode:tb;glyph-orientation-vertical:0" x="220mm" y="420mm">PATRON</text><text dx="30mm" dy="87mm" fill="purple" stroke="purple" style="font-size:24px; font-family:Arial" x="220mm" y="420mm">MARBLE</text><circle cx="226mm" cy="504mm" r="6mm" stroke="darkgoldenrod" stroke-width="2" /><circle cx="226mm" cy="504mm" r="5mm" stroke="darkgoldenrod" stroke-width="2" /><circle cx="230mm" cy="504mm" r="6mm" stroke="darkgoldenrod" stroke-width="2" /><circle cx="230mm" cy="504mm" r="5mm" stroke="darkgoldenrod" stroke-width="2" /><circle cx="234mm" cy="504mm" r="6mm" stroke="darkgoldenrod" stroke-width="2" /><circle cx="234mm" cy="504mm" r="5mm" stroke="darkgoldenrod" stroke-width="2" /><text fill="slategrey" stroke="slategrey" style="font-size:16px;font-family:Arial;display-align:center" x="233mm" y="460mm"><tspan x="233mm" y="460mm">When performing </tspan><tspan x="233mm" y="467mm">CRAFTSMAN action </tspan><tspan x="233mm" y="474mm">may use cards </tspan><tspan x="233mm" y="481mm">from DECK.  </tspan><tspan x="233mm" y="488mm">Retain any unused </tspan><tspan x="233mm" y="495mm">cards in HAND </tspan></text></g><g fill="white" id="Garden"><rect fill="white" height="90mm" rx="8mm" ry="8mm" stroke="black" stroke-width="1.5" width="60mm" x="320mm" y="520mm" /><text fill="black" stroke="black" style="font-size:24px; font-family:Arial" x="335mm" y="530mm">GARDEN</text><text dx="4mm" dy="15mm" fill="cornflowerblue" stroke="cornflowerblue" style="font-size:24px;font-family:Arial;writing-mode:tb;glyph-orientation-vertical:0" x="320mm" y="520mm">MERCHANT</text><text dx="33mm" dy="87mm" fill="cornflowerblue" stroke="cornflowerblue" style="font-size:24px; font-family:Arial" x="320mm" y="520mm">STONE</text><circle cx="326mm" cy="604mm" r="6mm" stroke="darkgoldenrod" stroke-width="2" /><circle cx="326mm" cy="604mm" r="5mm" stroke="darkgoldenrod" stroke-width="2" /><circle cx="330mm" cy="604mm" r="6mm" stroke="darkgoldenrod" stroke-width="2" /><circle cx="330mm" cy="604mm" r="5mm" stroke="darkgoldenrod" stroke-width="2" /><circle cx="334mm" cy="604mm" r="6mm" stroke="darkgoldenrod" stroke-width="2" /><circle cx="334mm" cy="604mm" r="5mm" stroke="darkgoldenrod" stroke-width="2" /><text fill="slategrey" stroke="slategrey" style="font-size:16px;font-family:Arial;display-align:center" x="333mm" y="573mm"><tspan x="333mm" y="573mm">May perform one </tspan><tspan x="333mm" y="580mm">PATRON action for </tspan><tspan x="333mm" y="587mm">each INFLUENCE </tspan></text></g><g fill="white" id="Gate"><rect fill="white" height="90mm" rx="8mm" ry="8mm" stroke="black" stroke-width="1.5" width="60mm" x="520mm" y="320mm" /><text fill="black" stroke="black" style="font-size:24px; font-family:Arial" x="542mm" y="330mm">GATE</text><text dx="4mm" dy="7mm" fill="firebrick" stroke="firebrick" style="font-size:24px;font-family:Arial;writing-mode:tb;glyph-orientation-vertical:0" x="520mm" y="320mm">LEGIONARY</text><text dx="33mm" dy="87mm" fill="firebrick" stroke="firebrick" style="font-size:24px; font-family:Arial" x="520mm" y="320mm">BRICK</text><circle cx="526mm" cy="404mm" r="6mm" stroke="darkgoldenrod" stroke-width="2" /><circle cx="526mm" cy="404mm" r="5mm" stroke="darkgoldenrod" stroke-width="2" /><circle cx="530mm" cy="404mm" r="6mm" stroke="darkgoldenrod" stroke-width="2" /><circle cx="530mm" cy="404mm" r="5mm" stroke="darkgoldenrod" stroke-width="2" /><text fill="slategrey" stroke="slategrey" style="font-size:16px;font-family:Arial;display-align:center" x="533mm" y="373mm"><tspan x="533mm" y="373mm">Incomplete MARBLE </tspan><tspan x="533mm" y="380mm">structures </tspan><tspan x="533mm" y="387mm">provide FUNCTION </tspan></text></g><g fill="white" id="Insula"><rect fill="white" height="90mm" rx="8mm" ry="8mm" stroke="black" stroke-width="1.5" width="60mm" x="120mm" y="120mm" /><text fill="black" stroke="black" style="font-size:24px; font-family:Arial" x="135mm" y="130mm">INSULA</text><text dx="4mm" dy="10mm" fill="gold" stroke="gold" style="font-size:24px;font-family:Arial;writing-mode:tb;glyph-orientation-vertical:0" x="120mm" y="120mm">LABORER</text><text dx="30mm" dy="87mm" fill="gold" stroke="gold" style="font-size:24px; font-family:Arial" x="120mm" y="120mm">RUBBLE</text><circle cx="126mm" cy="204mm" r="6mm" stroke="darkgoldenrod" stroke-width="2" /><circle cx="126mm" cy="204mm" r="5mm" stroke="darkgoldenrod" stroke-width="2" /><text fill="slategrey" stroke="slategrey" style="font-size:16px;font-family:Arial;display-align:center" x="133mm" y="175mm"><tspan x="133mm" y="175mm">Maximum CLIENTELE </tspan><tspan x="133mm" y="182mm">+ 2 </tspan></text></g><g fill="white" id="Latrine"><rect fill="white" height="90mm" rx="8mm" ry="8mm" stroke="black" stroke-width="1.5" width="60mm" x="220mm" y="120mm" /><text fill="black" stroke="black" style="font-size:24px; font-family:Arial" x="235mm" y="130mm">LATRINE</text><text dx="4mm" dy="10mm" fill="gold" stroke="gold" style="font-size:24px;font-family:Arial;writing-mode:tb;glyph-orientation-vertical:0" x="220mm" y="120mm">LABORER</text><text dx="30mm" dy="87mm" fill="gold" stroke="gold" style="font-size:24px; font-family:Arial" x="220mm" y="120mm">RUBBLE</text><circle cx="226mm" cy="204mm" r="6mm" stroke="darkgoldenrod" stroke-width="2" /><circle cx="226mm" cy="204mm" r="5mm" stroke="darkgoldenrod" stroke-width="2" /><text fill="slategrey" stroke="slategrey" style="font-size:16px;font-family:Arial;display-align:center" x="233mm" y="170mm"><tspan x="233mm" y="170mm">Before performing </tspan><tspan x="233mm" y="177mm">THINKER action </tspan><tspan x="233mm" y="184mm">may discard one </tspan><tspan x="233mm" y="191mm">card to POOL </tspan></text></g><g fill="white" id="Ludus_Magna"><rect fill="white" height="90mm" rx="8mm" ry="8mm" stroke="black" stroke-width="1.5" width="60mm" x="320mm" y="420mm" /><text fill="black" stroke="black" style="font-size:24px;font-family:Arial;display-align:center" x="338mm" y="430mm"><tspan x="338mm" y="430mm">LUDUS</tspan><tspan x="338mm" y="437mm">MAGNA</tspan></text><text dx="4mm" dy="20mm" fill="purple" stroke="purple" style="font-size:24px;font-family:Arial;writing-mode:tb;glyph-orientation-vertical:0" x="320mm" y="420mm">PATRON</text><text dx="30mm" dy="87mm" fill="purple" stroke="purple" style="font-size:24px; font-family:Arial" x="320mm" y="420mm">MARBLE</text><circle cx="326mm" cy="504mm" r="6mm" stroke="darkgoldenrod" stroke-width="2" /><circle cx="326mm" cy="504mm" r="5mm" stroke="darkgoldenrod" stroke-width="2" /><circle cx="330mm" cy="504mm" r="6mm" stroke="darkgoldenrod" stroke-width="2" /><circle cx="330mm" cy="504mm" r="5mm" stroke="darkgoldenrod" stroke-width="2" /><circle cx="334mm" cy="504mm" r="6mm" stroke="darkgoldenrod" stroke-width="2" /><circle cx="334mm" cy="504mm" r="5mm" stroke="darkgoldenrod" stroke-width="2" /><text fill="slategrey" stroke="slategrey" style="font-size:16px;font-family:Arial;display-align:center" x="333mm" y="473mm"><tspan x="333mm" y="473mm">Each MERCHANT </tspan><tspan x="333mm" y="480mm">client counts as </tspan><tspan x="333mm" y="487mm">any role </tspan></text></g><g fill="white" id="Market"><rect fill="white" height="90mm" rx="8mm" ry="8mm" stroke="black" stroke-width="1.5" width="60mm" x="220mm" y="20mm" /><text fill="black" stroke="black" style="font-size:24px; font-family:Arial" x="235mm" y="30mm">MARKET</text><text dx="4mm" dy="7mm" fill="green" stroke="green" style="font-size:24px;font-family:Arial;writing-mode:tb;glyph-orientation-vertical:0" x="220mm" y="20mm">CRAFTSMAN</text><text dx="33mm" dy="87mm" fill="green" stroke="green" style="font-size:24px; font-family:Arial" x="220mm" y="20mm">WOOD</text><circle cx="226mm" cy="104mm" r="6mm" stroke="darkgoldenrod" stroke-width="2" /><circle cx="226mm" cy="104mm" r="5mm" stroke="darkgoldenrod" stroke-width="2" /><text fill="slategrey" stroke="slategrey" style="font-size:16px;font-family:Arial;display-align:center" x="233mm" y="77mm"><tspan x="233mm" y="77mm">Maximum VAULT + 2 </tspan></text></g><g fill="white" id="Palace"><rect fill="white" height="90mm" rx="8mm" ry="8mm" stroke="black" stroke-width="1.5" width="60mm" x="420mm" y="420mm" /><text fill="black" stroke="black" style="font-size:24px; font-family:Arial" x="435mm" y="430mm">PALACE</text><text dx="4mm" dy="20mm" fill="purple" stroke="purple" style="font-size:24px;font-family:Arial;writing-mode:tb;glyph-orientation-vertical:0" x="420mm" y="420mm">PATRON</text><text dx="30mm" dy="87mm" fill="purple" stroke="purple" style="font-size:24px; font-family:Arial" x="420mm" y="420mm">MARBLE</text><circle cx="426mm" cy="504mm" r="6mm" stroke="darkgoldenrod" stroke-width="2" /><circle cx="426mm" cy="504mm" r="5mm" stroke="darkgoldenrod" stroke-width="2" /><circle cx="430mm" cy="504mm" r="6mm" stroke="darkgoldenrod" stroke-width="2" /><circle cx="430mm" cy="504mm" r="5mm" stroke="darkgoldenrod" stroke-width="2" /><circle cx="434mm" cy="504mm" r="6mm" stroke="darkgoldenrod" stroke-width="2" /><circle cx="434mm" cy="504mm" r="5mm" stroke="darkgoldenrod" stroke-width="2" /><text fill="slategrey" stroke="slategrey" style="font-size:16px;font-family:Arial;display-align:center" x="433mm" y="460mm"><tspan x="433mm" y="460mm">May play multiple </tspan><tspan x="433mm" y="467mm">cards of same </tspan><tspan x="433mm" y="474mm">role in order to </tspan><tspan x="433mm" y="481mm">perform </tspan><tspan x="433mm" y="488mm">additional </tspan><tspan x="433mm" y="495mm">actions </tspan></text></g><g fill="white" id="Palisade"><rect fill="white" height="90mm" rx="8mm" ry="8mm" stroke="black" stroke-width="1.5" width="60mm" x="320mm" y="20mm" /><text fill="black" stroke="black" style="font-size:24px; font-family:Arial" x="332mm" y="30mm">PALISADE</text><text dx="4mm" dy="7mm" fill="green" stroke="green" style="font-size:24px;font-family:Arial;writing-mode:tb;glyph-orientation-vertical:0" x="320mm" y="20mm">CRAFTSMAN</text><text dx="33mm" dy="87mm" fill="green" stroke="green" style="font-size:24px; font-family:Arial" x="320mm" y="20mm">WOOD</text><circle cx="326mm" cy="104mm" r="6mm" stroke="darkgoldenrod" stroke-width="2" /><circle cx="326mm" cy="104mm" r="5mm" stroke="darkgoldenrod" stroke-width="2" /><text fill="slategrey" stroke="slategrey" style="font-size:16px;font-family:Arial;display-align:center" x="333mm" y="75mm"><tspan x="333mm" y="75mm">Immune to </tspan><tspan x="333mm" y="82mm">LEGIONARY </tspan></text></g><g fill="white" id="Prison"><rect fill="white" height="90mm" rx="8mm" ry="8mm" stroke="black" stroke-width="1.5" width="60mm" x="420mm" y="520mm" /><text fill="black" stroke="black" style="font-size:24px; font-family:Arial" x="435mm" y="530mm">PRISON</text><text dx="4mm" dy="15mm" fill="cornflowerblue" stroke="cornflowerblue" style="font-size:24px;font-family:Arial;writing-mode:tb;glyph-orientation-vertical:0" x="420mm" y="520mm">MERCHANT</text><text dx="33mm" dy="87mm" fill="cornflowerblue" stroke="cornflowerblue" style="font-size:24px; font-family:Arial" x="420mm" y="520mm">STONE</text><circle cx="426mm" cy="604mm" r="6mm" stroke="darkgoldenrod" stroke-width="2" /><circle cx="426mm" cy="604mm" r="5mm" stroke="darkgoldenrod" stroke-width="2" /><circle cx="430mm" cy="604mm" r="6mm" stroke="darkgoldenrod" stroke-width="2" /><circle cx="430mm" cy="604mm" r="5mm" stroke="darkgoldenrod" stroke-width="2" /><circle cx="434mm" cy="604mm" r="6mm" stroke="darkgoldenrod" stroke-width="2" /><circle cx="434mm" cy="604mm" r="5mm" stroke="darkgoldenrod" stroke-width="2" /><text fill="slategrey" stroke="slategrey" style="font-size:16px;font-family:Arial;display-align:center" x="433mm" y="565mm"><tspan x="433mm" y="565mm">May exchange </tspan><tspan x="433mm" y="572mm">INFLUENCE for </tspan><tspan x="433mm" y="579mm">opponent's </tspan><tspan x="433mm" y="586mm">completed </tspan><tspan x="433mm" y="593mm">structure </tspan></text></g><g fill="white" id="Road"><rect fill="white" height="90mm" rx="8mm" ry="8mm" stroke="black" stroke-width="1.5" width="60mm" x="320mm" y="120mm" /><text fill="black" stroke="black" style="font-size:24px; font-family:Arial" x="342mm" y="130mm">ROAD</text><text dx="4mm" dy="10mm" fill="gold" stroke="gold" style="font-size:24px;font-family:Arial;writing-mode:tb;glyph-orientation-vertical:0" x="320mm" y="120mm">LABORER</text><text dx="30mm" dy="87mm" fill="gold" stroke="gold" style="font-size:24px; font-family:Arial" x="320mm" y="120mm">RUBBLE</text><circle cx="326mm" cy="204mm" r="6mm" stroke="darkgoldenrod" stroke-width="2" /><circle cx="326mm" cy="204mm" r="5mm" stroke="darkgoldenrod" stroke-width="2" /><text fill="slategrey" stroke="slategrey" style="font-size:16px;font-family:Arial;display-align:center" x="333mm" y="170mm"><tspan x="333mm" y="170mm">When adding to </tspan><tspan x="333mm" y="177mm">STONE structure </tspan><tspan x="333mm" y="184mm">may use any </tspan><tspan x="333mm" y="191mm">material </tspan></text></g><g fill="white" id="School"><rect fill="white" height="90mm" rx="8mm" ry="8mm" stroke="black" stroke-width="1.5" width="60mm" x="620mm" y="320mm" /><text fill="black" stroke="black" style="font-size:24px; font-family:Arial" x="635mm" y="330mm">SCHOOL</text><text dx="4mm" dy="7mm" fill="firebrick" stroke="firebrick" style="font-size:24px;font-family:Arial;writing-mode:tb;glyph-orientation-vertical:0" x="620mm" y="320mm">LEGIONARY</text><text dx="33mm" dy="87mm" fill="firebrick" stroke="firebrick" style="font-size:24px; font-family:Arial" x="620mm" y="320mm">BRICK</text><circle cx="626mm" cy="404mm" r="6mm" stroke="darkgoldenrod" stroke-width="2" /><circle cx="626mm" cy="404mm" r="5mm" stroke="darkgoldenrod" stroke-width="2" /><circle cx="630mm" cy="404mm" r="6mm" stroke="darkgoldenrod" stroke-width="2" /><circle cx="630mm" cy="404mm" r="5mm" stroke="darkgoldenrod" stroke-width="2" /><text fill="slategrey" stroke="slategrey" style="font-size:16px;font-family:Arial;display-align:center" x="633mm" y="370mm"><tspan x="633mm" y="370mm">May perform one </tspan><tspan x="633mm" y="377mm">THINKER action </tspan><tspan x="633mm" y="384mm">for each </tspan><tspan x="633mm" y="391mm">INFLUENCE </tspan></text></g><g fill="white" id="Scriptorium"><rect fill="white" height="90mm" rx="8mm" ry="8mm" stroke="black" stroke-width="1.5" width="60mm" x="520mm" y="520mm" /><text fill="black" stroke="black" style="font-size:24px; font-family:Arial" x="530mm" y="530mm">SCRIPTORIUM</text><text dx="4mm" dy="15mm" fill="cornflowerblue" stroke="cornflowerblue" style="font-size:24px;font-family:Arial;writing-mode:tb;glyph-orientation-vertical:0" x="520mm" y="520mm">MERCHANT</text><text dx="33mm" dy="87mm" fill="cornflowerblue" stroke="cornflowerblue" style="font-size:24px; font-family:Arial" x="520mm" y="520mm">STONE</text><circle cx="526mm" cy="604mm" r="6mm" stroke="darkgoldenrod" stroke-width="2" /><circle cx="526mm" cy="604mm" r="5mm" stroke="darkgoldenrod" stroke-width="2" /><circle cx="530mm" cy="604mm" r="6mm" stroke="darkgoldenrod" stroke-width="2" /><circle cx="530mm" cy="604mm" r="5mm" stroke="darkgoldenrod" stroke-width="2" /><circle cx="534mm" cy="604mm" r="6mm" stroke="darkgoldenrod" stroke-width="2" /><circle cx="534mm" cy="604mm" r="5mm" stroke="darkgoldenrod" stroke-width="2" /><text fill="slategrey" stroke="slategrey" style="font-size:16px;font-family:Arial;display-align:center" x="533mm" y="570mm"><tspan x="533mm" y="570mm">May use one </tspan><tspan x="533mm" y="577mm">MARBLE material </tspan><tspan x="533mm" y="584mm">to complete any </tspan><tspan x="533mm" y="591mm">structure </tspan></text></g><g fill="white" id="Senate"><rect fill="white" height="90mm" rx="8mm" ry="8mm" stroke="black" stroke-width="1.5" width="60mm" x="320mm" y="220mm" /><text fill="black" stroke="black" style="font-size:24px; font-family:Arial" x="335mm" y="230mm">SENATE</text><text dx="4mm" dy="7mm" fill="slategrey" stroke="slategrey" style="font-size:24px;font-family:Arial;writing-mode:tb;glyph-orientation-vertical:0" x="320mm" y="220mm">ARCHITECT</text><text dx="21mm" dy="87mm" fill="slategrey" stroke="slategrey" style="font-size:24px; font-family:Arial" x="320mm" y="220mm">CONCRETE</text><circle cx="326mm" cy="304mm" r="6mm" stroke="darkgoldenrod" stroke-width="2" /><circle cx="326mm" cy="304mm" r="5mm" stroke="darkgoldenrod" stroke-width="2" /><circle cx="330mm" cy="304mm" r="6mm" stroke="darkgoldenrod" stroke-width="2" /><circle cx="330mm" cy="304mm" r="5mm" stroke="darkgoldenrod" stroke-width="2" /><text fill="slategrey" stroke="slategrey" style="font-size:16px;font-family:Arial;display-align:center" x="333mm" y="265mm"><tspan x="333mm" y="265mm">May take </tspan><tspan x="333mm" y="272mm">opponent's JACK </tspan><tspan x="333mm" y="279mm">into HAND at end </tspan><tspan x="333mm" y="286mm">of turn in which </tspan><tspan x="333mm" y="293mm">it is played </tspan></text></g><g fill="white" id="Sewer"><rect fill="white" height="90mm" rx="8mm" ry="8mm" stroke="black" stroke-width="1.5" width="60mm" x="620mm" y="520mm" /><text fill="black" stroke="black" style="font-size:24px; font-family:Arial" x="638mm" y="530mm">SEWER</text><text dx="4mm" dy="15mm" fill="cornflowerblue" stroke="cornflowerblue" style="font-size:24px;font-family:Arial;writing-mode:tb;glyph-orientation-vertical:0" x="620mm" y="520mm">MERCHANT</text><text dx="33mm" dy="87mm" fill="cornflowerblue" stroke="cornflowerblue" style="font-size:24px; font-family:Arial" x="620mm" y="520mm">STONE</text><circle cx="626mm" cy="604mm" r="6mm" stroke="darkgoldenrod" stroke-width="2" /><circle cx="626mm" cy="604mm" r="5mm" stroke="darkgoldenrod" stroke-width="2" /><circle cx="630mm" cy="604mm" r="6mm" stroke="darkgoldenrod" stroke-width="2" /><circle cx="630mm" cy="604mm" r="5mm" stroke="darkgoldenrod" stroke-width="2" /><circle cx="634mm" cy="604mm" r="6mm" stroke="darkgoldenrod" stroke-width="2" /><circle cx="634mm" cy="604mm" r="5mm" stroke="darkgoldenrod" stroke-width="2" /><text fill="slategrey" stroke="slategrey" style="font-size:16px;font-family:Arial;display-align:center" x="633mm" y="565mm"><tspan x="633mm" y="565mm">May place Orders </tspan><tspan x="633mm" y="572mm">cards used to </tspan><tspan x="633mm" y="579mm">lead or follow </tspan><tspan x="633mm" y="586mm">into STOCKPILE at </tspan><tspan x="633mm" y="593mm">end of turn </tspan></text></g><g fill="white" id="Shrine"><rect fill="white" height="90mm" rx="8mm" ry="8mm" stroke="black" stroke-width="1.5" width="60mm" x="720mm" y="320mm" /><text fill="black" stroke="black" style="font-size:24px; font-family:Arial" x="735mm" y="330mm">SHRINE</text><text dx="4mm" dy="7mm" fill="firebrick" stroke="firebrick" style="font-size:24px;font-family:Arial;writing-mode:tb;glyph-orientation-vertical:0" x="720mm" y="320mm">LEGIONARY</text><text dx="33mm" dy="87mm" fill="firebrick" stroke="firebrick" style="font-size:24px; font-family:Arial" x="720mm" y="320mm">BRICK</text><circle cx="726mm" cy="404mm" r="6mm" stroke="darkgoldenrod" stroke-width="2" /><circle cx="726mm" cy="404mm" r="5mm" stroke="darkgoldenrod" stroke-width="2" /><circle cx="730mm" cy="404mm" r="6mm" stroke="darkgoldenrod" stroke-width="2" /><circle cx="730mm" cy="404mm" r="5mm" stroke="darkgoldenrod" stroke-width="2" /><text fill="slategrey" stroke="slategrey" style="font-size:16px;font-family:Arial;display-align:center" x="733mm" y="377mm"><tspan x="733mm" y="377mm">Maximum HAND + 2 </tspan></text></g><g fill="white" id="Stairway"><rect fill="white" height="90mm" rx="8mm" ry="8mm" stroke="black" stroke-width="1.5" width="60mm" x="520mm" y="420mm" /><text fill="black" stroke="black" style="font-size:24px; font-family:Arial" x="532mm" y="430mm">STAIRWAY</text><text dx="4mm" dy="20mm" fill="purple" stroke="purple" style="font-size:24px;font-family:Arial;writing-mode:tb;glyph-orientation-vertical:0" x="520mm" y="420mm">PATRON</text><text dx="30mm" dy="87mm" fill="purple" stroke="purple" style="font-size:24px; font-family:Arial" x="520mm" y="420mm">MARBLE</text><circle cx="526mm" cy="504mm" r="6mm" stroke="darkgoldenrod" stroke-width="2" /><circle cx="526mm" cy="504mm" r="5mm" stroke="darkgoldenrod" stroke-width="2" /><circle cx="530mm" cy="504mm" r="6mm" stroke="darkgoldenrod" stroke-width="2" /><circle cx="530mm" cy="504mm" r="5mm" stroke="darkgoldenrod" stroke-width="2" /><circle cx="534mm" cy="504mm" r="6mm" stroke="darkgoldenrod" stroke-width="2" /><circle cx="534mm" cy="504mm" r="5mm" stroke="darkgoldenrod" stroke-width="2" /><text fill="slategrey" stroke="slategrey" style="font-size:16px;font-family:Arial;display-align:center" x="533mm" y="440mm"><tspan x="533mm" y="440mm">When performing </tspan><tspan x="533mm" y="447mm">ARCHITECT action </tspan><tspan x="533mm" y="454mm">may add material </tspan><tspan x="533mm" y="461mm">to opponent's </tspan><tspan x="533mm" y="468mm">completed </tspan><tspan x="533mm" y="475mm">STRUCTURE to make </tspan><tspan x="533mm" y="482mm">function </tspan><tspan x="533mm" y="489mm">available to all </tspan><tspan x="533mm" y="496mm">players </tspan></text></g><g fill="white" id="Statue"><rect fill="white" height="90mm" rx="8mm" ry="8mm" stroke="black" stroke-width="1.5" width="60mm" x="620mm" y="420mm" /><text fill="black" stroke="black" style="font-size:24px; font-family:Arial" x="635mm" y="430mm">STATUE</text><text dx="4mm" dy="20mm" fill="purple" stroke="purple" style="font-size:24px;font-family:Arial;writing-mode:tb;glyph-orientation-vertical:0" x="620mm" y="420mm">PATRON</text><text dx="30mm" dy="87mm" fill="purple" stroke="purple" style="font-size:24px; font-family:Arial" x="620mm" y="420mm">MARBLE</text><circle cx="626mm" cy="504mm" r="6mm" stroke="darkgoldenrod" stroke-width="2" /><circle cx="626mm" cy="504mm" r="5mm" stroke="darkgoldenrod" stroke-width="2" /><circle cx="630mm" cy="504mm" r="6mm" stroke="darkgoldenrod" stroke-width="2" /><circle cx="630mm" cy="504mm" r="5mm" stroke="darkgoldenrod" stroke-width="2" /><circle cx="634mm" cy="504mm" r="6mm" stroke="darkgoldenrod" stroke-width="2" /><circle cx="634mm" cy="504mm" r="5mm" stroke="darkgoldenrod" stroke-width="2" /><text fill="slategrey" stroke="slategrey" style="font-size:16px;font-family:Arial;display-align:center" x="633mm" y="473mm"><tspan x="633mm" y="473mm">+ 3 VP. May place </tspan><tspan x="633mm" y="480mm">Statue on any </tspan><tspan x="633mm" y="487mm">SITE </tspan></text></g><g fill="white" id="Storeroom"><rect fill="white" height="90mm" rx="8mm" ry="8mm" stroke="black" stroke-width="1.5" width="60mm" x="420mm" y="220mm" /><text fill="black" stroke="black" style="font-size:24px; font-family:Arial" x="430mm" y="230mm">STOREROOM</text><text dx="4mm" dy="7mm" fill="slategrey" stroke="slategrey" style="font-size:24px;font-family:Arial;writing-mode:tb;glyph-orientation-vertical:0" x="420mm" y="220mm">ARCHITECT</text><text dx="21mm" dy="87mm" fill="slategrey" stroke="slategrey" style="font-size:24px; font-family:Arial" x="420mm" y="220mm">CONCRETE</text><circle cx="426mm" cy="304mm" r="6mm" stroke="darkgoldenrod" stroke-width="2" /><circle cx="426mm" cy="304mm" r="5mm" stroke="darkgoldenrod" stroke-width="2" /><circle cx="430mm" cy="304mm" r="6mm" stroke="darkgoldenrod" stroke-width="2" /><circle cx="430mm" cy="304mm" r="5mm" stroke="darkgoldenrod" stroke-width="2" /><text fill="slategrey" stroke="slategrey" style="font-size:16px;font-family:Arial;display-align:center" x="433mm" y="275mm"><tspan x="433mm" y="275mm">All clients count </tspan><tspan x="433mm" y="282mm">as LABORERS </tspan></text></g><g fill="white" id="Temple"><rect fill="white" height="90mm" rx="8mm" ry="8mm" stroke="black" stroke-width="1.5" width="60mm" x="720mm" y="420mm" /><text fill="black" stroke="black" style="font-size:24px; font-family:Arial" x="735mm" y="430mm">TEMPLE</text><text dx="4mm" dy="20mm" fill="purple" stroke="purple" style="font-size:24px;font-family:Arial;writing-mode:tb;glyph-orientation-vertical:0" x="720mm" y="420mm">PATRON</text><text dx="30mm" dy="87mm" fill="purple" stroke="purple" style="font-size:24px; font-family:Arial" x="720mm" y="420mm">MARBLE</text><circle cx="726mm" cy="504mm" r="6mm" stroke="darkgoldenrod" stroke-width="2" /><circle cx="726mm" cy="504mm" r="5mm" stroke="darkgoldenrod" stroke-width="2" /><circle cx="730mm" cy="504mm" r="6mm" stroke="darkgoldenrod" stroke-width="2" /><circle cx="730mm" cy="504mm" r="5mm" stroke="darkgoldenrod" stroke-width="2" /><circle cx="734mm" cy="504mm" r="6mm" stroke="darkgoldenrod" stroke-width="2" /><circle cx="734mm" cy="504mm" r="5mm" stroke="darkgoldenrod" stroke-width="2" /><text fill="slategrey" stroke="slategrey" style="font-size:16px;font-family:Arial;display-align:center" x="733mm" y="477mm"><tspan x="733mm" y="477mm">Maximum HAND + 4 </tspan></text></g><g fill="white" id="Tower"><rect fill="white" height="90mm" rx="8mm" ry="8mm" stroke="black" stroke-width="1.5" width="60mm" x="520mm" y="220mm" /><text fill="black" stroke="black" style="font-size:24px; font-family:Arial" x="538mm" y="230mm">TOWER</text><text dx="4mm" dy="7mm" fill="slategrey" stroke="slategrey" style="font-size:24px;font-family:Arial;writing-mode:tb;glyph-orientation-vertical:0" x="520mm" y="220mm">ARCHITECT</text><text dx="21mm" dy="87mm" fill="slategrey" stroke="slategrey" style="font-size:24px; font-family:Arial" x="520mm" y="220mm">CONCRETE</text><circle cx="526mm" cy="304mm" r="6mm" stroke="darkgoldenrod" stroke-width="2" /><circle cx="526mm" cy="304mm" r="5mm" stroke="darkgoldenrod" stroke-width="2" /><circle cx="530mm" cy="304mm" r="6mm" stroke="darkgoldenrod" stroke-width="2" /><circle cx="530mm" cy="304mm" r="5mm" stroke="darkgoldenrod" stroke-width="2" /><text fill="slategrey" stroke="slategrey" style="font-size:16px;font-family:Arial;display-align:center" x="533mm" y="250mm"><tspan x="533mm" y="250mm">May use RUBBLE in </tspan><tspan x="533mm" y="257mm">any STRUCTURE.  </tspan><tspan x="533mm" y="264mm">May lay </tspan><tspan x="533mm" y="271mm">foundation onto </tspan><tspan x="533mm" y="278mm">any out of town </tspan><tspan x="533mm" y="285mm">SITE at no extra </tspan><tspan x="533mm" y="292mm">cost </tspan></text></g><g fill="white" id="Villa"><rect fill="white" height="90mm" rx="8mm" ry="8mm" stroke="black" stroke-width="1.5" width="60mm" x="720mm" y="520mm" /><text fill="black" stroke="black" style="font-size:24px; font-family:Arial" x="738mm" y="530mm">VILLA</text><text dx="4mm" dy="15mm" fill="cornflowerblue" stroke="cornflowerblue" style="font-size:24px;font-family:Arial;writing-mode:tb;glyph-orientation-vertical:0" x="720mm" y="520mm">MERCHANT</text><text dx="33mm" dy="87mm" fill="cornflowerblue" stroke="cornflowerblue" style="font-size:24px; font-family:Arial" x="720mm" y="520mm">STONE</text><circle cx="726mm" cy="604mm" r="6mm" stroke="darkgoldenrod" stroke-width="2" /><circle cx="726mm" cy="604mm" r="5mm" stroke="darkgoldenrod" stroke-width="2" /><circle cx="730mm" cy="604mm" r="6mm" stroke="darkgoldenrod" stroke-width="2" /><circle cx="730mm" cy="604mm" r="5mm" stroke="darkgoldenrod" stroke-width="2" /><circle cx="734mm" cy="604mm" r="6mm" stroke="darkgoldenrod" stroke-width="2" /><circle cx="734mm" cy="604mm" r="5mm" stroke="darkgoldenrod" stroke-width="2" /><text fill="slategrey" stroke="slategrey" style="font-size:16px;font-family:Arial;display-align:center" x="733mm" y="565mm"><tspan x="733mm" y="565mm">When performing </tspan><tspan x="733mm" y="572mm">ARCHITECT action </tspan><tspan x="733mm" y="579mm">may complete </tspan><tspan x="733mm" y="586mm">Villa with one </tspan><tspan x="733mm" y="593mm">material </tspan></text></g><g fill="white" id="Vomitorium"><rect fill="white" height="90mm" rx="8mm" ry="8mm" stroke="black" stroke-width="1.5" width="60mm" x="620mm" y="220mm" /><text fill="black" stroke="black" style="font-size:24px; font-family:Arial" x="630mm" y="230mm">VOMITORIUM</text><text dx="4mm" dy="7mm" fill="slategrey" stroke="slategrey" style="font-size:24px;font-family:Arial;writing-mode:tb;glyph-orientation-vertical:0" x="620mm" y="220mm">ARCHITECT</text><text dx="21mm" dy="87mm" fill="slategrey" stroke="slategrey" style="font-size:24px; font-family:Arial" x="620mm" y="220mm">CONCRETE</text><circle cx="626mm" cy="304mm" r="6mm" stroke="darkgoldenrod" stroke-width="2" /><circle cx="626mm" cy="304mm" r="5mm" stroke="darkgoldenrod" stroke-width="2" /><circle cx="630mm" cy="304mm" r="6mm" stroke="darkgoldenrod" stroke-width="2" /><circle cx="630mm" cy="304mm" r="5mm" stroke="darkgoldenrod" stroke-width="2" /><text fill="slategrey" stroke="slategrey" style="font-size:16px;font-family:Arial;display-align:center" x="633mm" y="270mm"><tspan x="633mm" y="270mm">Before performing </tspan><tspan x="633mm" y="277mm">THINKER action </tspan><tspan x="633mm" y="284mm">may discard all </tspan><tspan x="633mm" y="291mm">cards to POOL </tspan></text></g></svg>