<?xml version="1.0" encoding="utf-8" ?>
<svg baseProfile="full" height="100%" version="1.1" width="100%" xmlns="http://www.w3.org/2000/svg" xmlns:ev="http://www.w3.org/2001/xml-events" xmlns:xlink="http://www.w3.org/1999/xlink"><defs /><g fill="white" id="Circus"><rect fill="white" height="90mm" rx="8mm" ry="8mm" stroke="black" stroke-width="1.5" width="60mm" x="10mm" y="10mm" /><text dx="15mm" dy="10mm" fill="black" stroke="black" style="font-size:24px; font-family:Arial" x="10mm" y="10mm">CIRCUS</text><text dx="4mm" dy="10mm" fill="green" stroke="green" style="font-size:24px;font-family:Arial;writing-mode:tb;glyph-orientation-vertical:0" x="10mm" y="10mm">CRAFTSMAN</text><text dx="33mm" dy="87mm" fill="green" stroke="green" style="font-size:24px; font-family:Arial" x="10mm" y="10mm">WOOD</text><circle cx="16mm" cy="94mm" r="6mm" stroke="darkgoldenrod" stroke-width="2" /><circle cx="16mm" cy="94mm" r="5mm" stroke="darkgoldenrod" stroke-width="2" /></g><g fill="white" id="Palisade"><rect fill="white" height="90mm" rx="8mm" ry="8mm" stroke="black" stroke-width="1.5" width="60mm" x="90mm" y="10mm" /><text dx="15mm" dy="10mm" fill="black" stroke="black" style="font-size:24px; font-family:Arial" x="90mm" y="10mm">PALISADE</text><text dx="4mm" dy="10mm" fill="green" stroke="green" style="font-size:24px;font-family:Arial;writing-mode:tb;glyph-orientation-vertical:0" x="90mm" y="10mm">CRAFTSMAN</text><text dx="33mm" dy="87mm" fill="green" stroke="green" style="font-size:24px; font-family:Arial" x="90mm" y="10mm">WOOD</text><circle cx="96mm" cy="94mm" r="6mm" stroke="darkgoldenrod" stroke-width="2" /><circle cx="96mm" cy="94mm" r="5mm" stroke="darkgoldenrod" stroke-width="2" /></g><g fill="white" id="Bar"><rect fill="white" height="90mm" rx="8mm" ry="8mm" stroke="black" stroke-width="1.5" width="60mm" x="180mm" y="10mm" /><text dx="15mm" dy="10mm" fill="black" stroke="black" style="font-size:24px; font-family:Arial" x="180mm" y="10mm">BAR</text><text dx="4mm" dy="20mm" fill="gold" stroke="gold" style="font-size:24px;font-family:Arial;writing-mode:tb;glyph-orientation-vertical:0" x="180mm" y="10mm">LABORER</text><text dx="30mm" dy="87mm" fill="gold" stroke="gold" style="font-size:24px; font-family:Arial" x="180mm" y="10mm">RUBBLE</text><circle cx="186mm" cy="94mm" r="6mm" stroke="darkgoldenrod" stroke-width="2" /><circle cx="186mm" cy="94mm" r="5mm" stroke="darkgoldenrod" stroke-width="2" /></g><g fill="white" id="Road"><rect fill="white" height="90mm" rx="8mm" ry="8mm" stroke="black" stroke-width="1.5" width="60mm" x="270mm" y="10mm" /><text dx="15mm" dy="10mm" fill="black" stroke="black" style="font-size:24px; font-family:Arial" x="270mm" y="10mm">ROAD</text><text dx="4mm" dy="20mm" fill="gold" stroke="gold" style="font-size:24px;font-family:Arial;writing-mode:tb;glyph-orientation-vertical:0" x="270mm" y="10mm">LABORER</text><text dx="30mm" dy="87mm" fill="gold" stroke="gold" style="font-size:24px; font-family:Arial" x="270mm" y="10mm">RUBBLE</text><circle cx="276mm" cy="94mm" r="6mm" stroke="darkgoldenrod" stroke-width="2" /><circle cx="276mm" cy="94mm" r="5mm" stroke="darkgoldenrod" stroke-width="2" /></g><g fill="white" id="Tower"><rect fill="white" height="90mm" rx="8mm" ry="8mm" stroke="black" stroke-width="1.5" width="60mm" x="10mm" y="110mm" /><text dx="15mm" dy="10mm" fill="black" stroke="black" style="font-size:24px; font-family:Arial" x="10mm" y="110mm">TOWER</text><text dx="4mm" dy="10mm" fill="slategrey" stroke="slategrey" style="font-size:24px;font-family:Arial;writing-mode:tb;glyph-orientation-vertical:0" x="10mm" y="110mm">ARCHITECT</text><text dx="21mm" dy="87mm" fill="slategrey" stroke="slategrey" style="font-size:24px; font-family:Arial" x="10mm" y="110mm">CONCRETE</text><circle cx="16mm" cy="194mm" r="6mm" stroke="darkgoldenrod" stroke-width="2" /><circle cx="16mm" cy="194mm" r="5mm" stroke="darkgoldenrod" stroke-width="2" /><circle cx="20mm" cy="194mm" r="6mm" stroke="darkgoldenrod" stroke-width="2" /><circle cx="20mm" cy="194mm" r="5mm" stroke="darkgoldenrod" stroke-width="2" /></g><g fill="white" id="Aqueduct"><rect fill="white" height="90mm" rx="8mm" ry="8mm" stroke="black" stroke-width="1.5" width="60mm" x="90mm" y="110mm" /><text dx="15mm" dy="10mm" fill="black" stroke="black" style="font-size:24px; font-family:Arial" x="90mm" y="110mm">AQUEDUCT</text><text dx="4mm" dy="10mm" fill="slategrey" stroke="slategrey" style="font-size:24px;font-family:Arial;writing-mode:tb;glyph-orientation-vertical:0" x="90mm" y="110mm">ARCHITECT</text><text dx="21mm" dy="87mm" fill="slategrey" stroke="slategrey" style="font-size:24px; font-family:Arial" x="90mm" y="110mm">CONCRETE</text><circle cx="96mm" cy="194mm" r="6mm" stroke="darkgoldenrod" stroke-width="2" /><circle cx="96mm" cy="194mm" r="5mm" stroke="darkgoldenrod" stroke-width="2" /><circle cx="100mm" cy="194mm" r="6mm" stroke="darkgoldenrod" stroke-width="2" /><circle cx="100mm" cy="194mm" r="5mm" stroke="darkgoldenrod" stroke-width="2" /></g><g fill="white" id="Archway"><rect fill="white" height="90mm" rx="8mm" ry="8mm" stroke="black" stroke-width="1.5" width="60mm" x="180mm" y="110mm" /><text dx="15mm" dy="10mm" fill="black" stroke="black" style="font-size:24px; font-family:Arial" x="180mm" y="110mm">ARCHWAY</text><text dx="4mm" dy="10mm" fill="firebrick" stroke="firebrick" style="font-size:24px;font-family:Arial;writing-mode:tb;glyph-orientation-vertical:0" x="180mm" y="110mm">LEGIONARY</text><text dx="33mm" dy="87mm" fill="firebrick" stroke="firebrick" style="font-size:24px; font-family:Arial" x="180mm" y="110mm">BRICK</text><circle cx="186mm" cy="194mm" r="6mm" stroke="darkgoldenrod" stroke-width="2" /><circle cx="186mm" cy="194mm" r="5mm" stroke="darkgoldenrod" stroke-width="2" /><circle cx="190mm" cy="194mm" r="6mm" stroke="darkgoldenrod" stroke-width="2" /><circle cx="190mm" cy="194mm" r="5mm" stroke="darkgoldenrod" stroke-width="2" /></g><g fill="white" id="Bath"><rect fill="white" height="90mm" rx="8mm" ry="8mm" stroke="black" stroke-width="1.5" width="60mm" x="270mm" y="110mm" /><text dx="15mm" dy="10mm" fill="black" stroke="black" style="font-size:24px; font-family:Arial" x="270mm" y="110mm">BATH</text><text dx="4mm" dy="10mm" fill="firebrick" stroke="firebrick" style="font-size:24px;font-family:Arial;writing-mode:tb;glyph-orientation-vertical:0" x="270mm" y="110mm">LEGIONARY</text><text dx="33mm" dy="87mm" fill="firebrick" stroke="firebrick" style="font-size:24px; font-family:Arial" x="270mm" y="110mm">BRICK</text><circle cx="276mm" cy="194mm" r="6mm" stroke="darkgoldenrod" stroke-width="2" /><circle cx="276mm" cy="194mm" r="5mm" stroke="darkgoldenrod" stroke-width="2" /><circle cx="280mm" cy="194mm" r="6mm" stroke="darkgoldenrod" stroke-width="2" /><circle cx="280mm" cy="194mm" r="5mm" stroke="darkgoldenrod" stroke-width="2" /></g><g fill="white" id="forum"><rect fill="white" height="90mm" rx="8mm" ry="8mm" stroke="black" stroke-width="1.5" width="60mm" x="10mm" y="210mm" /><text dx="15mm" dy="10mm" fill="black" stroke="black" style="font-size:24px; font-family:Arial" x="10mm" y="210mm">FORUM</text><text dx="4mm" dy="20mm" fill="purple" stroke="purple" style="font-size:24px;font-family:Arial;writing-mode:tb;glyph-orientation-vertical:0" x="10mm" y="210mm">PATRON</text><text dx="30mm" dy="87mm" fill="purple" stroke="purple" style="font-size:24px; font-family:Arial" x="10mm" y="210mm">MARBLE</text><circle cx="16mm" cy="294mm" r="6mm" stroke="darkgoldenrod" stroke-width="2" /><circle cx="16mm" cy="294mm" r="5mm" stroke="darkgoldenrod" stroke-width="2" /><circle cx="20mm" cy="294mm" r="6mm" stroke="darkgoldenrod" stroke-width="2" /><circle cx="20mm" cy="294mm" r="5mm" stroke="darkgoldenrod" stroke-width="2" /><circle cx="24mm" cy="294mm" r="6mm" stroke="darkgoldenrod" stroke-width="2" /><circle cx="24mm" cy="294mm" r="5mm" stroke="darkgoldenrod" stroke-width="2" /></g><g fill="white" id="Coliseum"><rect fill="white" height="90mm" rx="8mm" ry="8mm" stroke="black" stroke-width="1.5" width="60mm" x="180mm" y="210mm" /><text dx="15mm" dy="10mm" fill="black" stroke="black" style="font-size:24px; font-family:Arial" x="180mm" y="210mm">COLISEUM</text><text dx="4mm" dy="15mm" fill="cornflowerblue" stroke="cornflowerblue" style="font-size:24px;font-family:Arial;writing-mode:tb;glyph-orientation-vertical:0" x="180mm" y="210mm">MERCHANT</text><text dx="33mm" dy="87mm" fill="cornflowerblue" stroke="cornflowerblue" style="font-size:24px; font-family:Arial" x="180mm" y="210mm">STONE</text><circle cx="186mm" cy="294mm" r="6mm" stroke="darkgoldenrod" stroke-width="2" /><circle cx="186mm" cy="294mm" r="5mm" stroke="darkgoldenrod" stroke-width="2" /><circle cx="190mm" cy="294mm" r="6mm" stroke="darkgoldenrod" stroke-width="2" /><circle cx="190mm" cy="294mm" r="5mm" stroke="darkgoldenrod" stroke-width="2" /><circle cx="194mm" cy="294mm" r="6mm" stroke="darkgoldenrod" stroke-width="2" /><circle cx="194mm" cy="294mm" r="5mm" stroke="darkgoldenrod" stroke-width="2" /></g><g fill="white" id="Sewer"><rect fill="white" height="90mm" rx="8mm" ry="8mm" stroke="black" stroke-width="1.5" width="60mm" x="270mm" y="210mm" /><text dx="15mm" dy="10mm" fill="black" stroke="black" style="font-size:24px; font-family:Arial" x="270mm" y="210mm">SEWER</text><text dx="4mm" dy="15mm" fill="cornflowerblue" stroke="cornflowerblue" style="font-size:24px;font-family:Arial;writing-mode:tb;glyph-orientation-vertical:0" x="270mm" y="210mm">MERCHANT</text><text dx="33mm" dy="87mm" fill="cornflowerblue" stroke="cornflowerblue" style="font-size:24px; font-family:Arial" x="270mm" y="210mm">STONE</text><circle cx="276mm" cy="294mm" r="6mm" stroke="darkgoldenrod" stroke-width="2" /><circle cx="276mm" cy="294mm" r="5mm" stroke="darkgoldenrod" stroke-width="2" /><circle cx="280mm" cy="294mm" r="6mm" stroke="darkgoldenrod" stroke-width="2" /><circle cx="280mm" cy="294mm" r="5mm" stroke="darkgoldenrod" stroke-width="2" /><circle cx="284mm" cy="294mm" r="6mm" stroke="darkgoldenrod" stroke-width="2" /><circle cx="284mm" cy="294mm" r="5mm" stroke="darkgoldenrod" stroke-width="2" /></g><g fill="white" id="Basilica"><rect fill="white" height="90mm" rx="8mm" ry="8mm" stroke="black" stroke-width="1.5" width="60mm" x="90mm" y="210mm" /><text dx="15mm" dy="10mm" fill="black" stroke="black" style="font-size:24px; font-family:Arial" x="90mm" y="210mm">BASILICA</text><text dx="4mm" dy="20mm" fill="purple" stroke="purple" style="font-size:24px;font-family:Arial;writing-mode:tb;glyph-orientation-vertical:0" x="90mm" y="210mm">PATRON</text><text dx="30mm" dy="87mm" fill="purple" stroke="purple" style="font-size:24px; font-family:Arial" x="90mm" y="210mm">MARBLE</text><circle cx="96mm" cy="294mm" r="6mm" stroke="darkgoldenrod" stroke-width="2" /><circle cx="96mm" cy="294mm" r="5mm" stroke="darkgoldenrod" stroke-width="2" /><circle cx="100mm" cy="294mm" r="6mm" stroke="darkgoldenrod" stroke-width="2" /><circle cx="100mm" cy="294mm" r="5mm" stroke="darkgoldenrod" stroke-width="2" /><circle cx="104mm" cy="294mm" r="6mm" stroke="darkgoldenrod" stroke-width="2" /><circle cx="104mm" cy="294mm" r="5mm" stroke="darkgoldenrod" stroke-width="2" /></g></svg>